<?xml version="1.0" standalone="no"?>
<!DOCTYPE svg PUBLIC "-//W3C//DTD SVG 20010904//EN"
 "http://www.w3.org/TR/2001/REC-SVG-20010904/DTD/svg10.dtd">
<svg version="1.0" xmlns="http://www.w3.org/2000/svg"
 width="512.000000pt" height="512.000000pt" viewBox="0 0 512.000000 512.000000"
 preserveAspectRatio="xMidYMid meet">
<metadata>
Created by potrace 1.11, written by Peter Selinger 2001-2013
</metadata>
<g transform="translate(0.000000,512.000000) scale(0.100000,-0.100000)"
fill="#000000" stroke="none">
<path d="M3968 4539 c-76 -25 -138 -43 -138 -41 0 2 -7 -1 -15 -8 -8 -7 -15
-10 -15 -6 0 3 -30 -5 -67 -18 -38 -13 -115 -38 -173 -55 -58 -18 -152 -47
-210 -66 -102 -32 -230 -72 -565 -176 -88 -28 -172 -55 -187 -61 -26 -9 -75
-4 -108 12 -14 7 -309 100 -445 140 -33 10 -184 57 -335 105 -151 48 -279 88
-285 89 -13 3 -195 60 -308 97 -48 16 -91 29 -95 29 -5 0 -8 -218 -8 -484 l1
-484 -150 -46 c-82 -26 -157 -48 -165 -50 -8 -2 -37 -12 -65 -21 -27 -10 -54
-18 -60 -20 -40 -8 -162 -50 -170 -58 -7 -7 -5 -7 5 -2 12 6 13 5 3 -6 -15
-16 -17 -33 -3 -24 5 3 10 2 10 -4 0 -5 -6 -12 -12 -15 -11 -5 -11 -7 0 -12 6
-3 12 -10 12 -15 0 -6 -5 -7 -10 -4 -14 9 -13 -8 2 -23 8 -8 8 -15 -1 -26 -8
-10 -9 -16 -1 -21 7 -4 7 -12 0 -25 -13 -25 -13 -33 3 -24 9 6 9 5 0 -7 -7 -9
-8 -20 -3 -29 5 -8 5 -21 0 -30 -6 -11 -5 -21 1 -27 8 -8 7 -13 0 -17 -6 -4
-11 -12 -11 -17 0 -6 4 -8 8 -5 4 2 8 -4 9 -14 1 -11 -2 -22 -8 -25 -5 -4 -6
-13 0 -24 6 -10 6 -23 1 -31 -5 -9 -5 -19 1 -26 7 -8 6 -14 -1 -19 -5 -3 -10
-11 -10 -16 0 -6 4 -7 10 -4 5 3 10 1 10 -4 0 -6 -4 -11 -10 -11 -5 0 -10 -5
-10 -11 0 -5 4 -8 9 -5 10 7 9 -20 -2 -30 -4 -4 -7 -14 -7 -23 0 -14 2 -14 10
-1 6 9 10 10 10 3 0 -6 -4 -15 -10 -18 -5 -3 -10 -11 -10 -16 0 -6 4 -8 8 -5
10 6 8 -43 -3 -67 -4 -9 -2 -23 3 -30 7 -8 7 -18 2 -27 -12 -19 -13 -33 -2
-26 11 6 9 -40 -1 -50 -11 -11 -8 -26 3 -19 6 3 10 1 10 -4 0 -6 -4 -11 -10
-11 -5 0 -10 -5 -10 -11 0 -5 6 -7 13 -3 9 6 9 4 0 -7 -15 -16 -17 -33 -3 -24
6 3 10 1 10 -4 0 -6 -4 -11 -10 -11 -5 0 -10 -5 -10 -11 0 -5 4 -8 8 -5 5 3 9
-1 9 -9 0 -8 -4 -12 -9 -9 -4 3 -8 0 -8 -7 0 -14 45 -6 143 26 87 28 367 116
572 180 83 25 204 64 270 85 112 35 294 92 305 95 16 4 194 59 240 75 30 10
120 39 200 63 80 25 205 64 278 87 74 23 144 42 155 42 12 0 67 -15 122 -32
55 -17 134 -42 175 -55 41 -13 192 -60 335 -105 143 -45 294 -92 335 -105 41
-13 113 -36 160 -51 47 -15 90 -28 95 -30 6 -1 84 -25 175 -54 91 -29 185 -59
210 -66 25 -7 146 -45 270 -83 124 -39 228 -71 231 -71 3 0 6 218 6 485 0 267
-2 483 -5 480 -3 -3 -10 -1 -16 3 -6 5 -31 14 -56 21 -25 7 -54 17 -65 21 -11
5 -74 25 -140 45 -66 20 -157 48 -202 62 l-83 26 -2 486 -3 486 -137 -46z"/>
<path d="M1591 2713 c-25 -7 -49 -12 -52 -13 -15 -1 -115 -75 -134 -99 -33
-41 -64 -100 -76 -144 -8 -30 -11 -310 -11 -989 0 -829 2 -953 16 -1000 16
-55 59 -124 103 -166 28 -26 107 -67 149 -79 33 -8 1904 -21 1904 -13 0 3 14
7 30 8 88 7 192 72 249 157 59 87 58 63 57 1115 l-1 965 -29 60 c-52 104 -152
184 -254 202 -20 3 -457 6 -971 7 -700 1 -946 -2 -980 -11z"/>
</g>
</svg>
